<svg width="38" height="37" viewBox="0 0 38 37" fill="none" xmlns="http://www.w3.org/2000/svg">
<path d="M24.6719 13.9375C26.8599 13.9375 28.9583 14.8067 30.5055 16.3539C32.0527 17.901 32.9219 19.9995 32.9219 22.1875V31.8125H27.4219V22.1875C27.4219 21.4582 27.1321 20.7587 26.6164 20.243C26.1007 19.7272 25.4012 19.4375 24.6719 19.4375C23.9425 19.4375 23.2431 19.7272 22.7273 20.243C22.2116 20.7587 21.9219 21.4582 21.9219 22.1875V31.8125H16.4219V22.1875C16.4219 19.9995 17.2911 17.901 18.8382 16.3539C20.3854 14.8067 22.4838 13.9375 24.6719 13.9375Z" stroke="white" stroke-width="2" stroke-linecap="round" stroke-linejoin="round"/>
<path d="M10.9219 15.3125H5.42188V31.8125H10.9219V15.3125Z" stroke="white" stroke-width="2" stroke-linecap="round" stroke-linejoin="round"/>
<path d="M8.17188 11.1875C9.69066 11.1875 10.9219 9.95628 10.9219 8.4375C10.9219 6.91872 9.69066 5.6875 8.17188 5.6875C6.65309 5.6875 5.42188 6.91872 5.42188 8.4375C5.42188 9.95628 6.65309 11.1875 8.17188 11.1875Z" stroke="white" stroke-width="2" stroke-linecap="round" stroke-linejoin="round"/>
</svg>
