<svg width="38" height="38" viewBox="0 0 38 38" fill="none" xmlns="http://www.w3.org/2000/svg">
<path d="M26.0469 5H12.2969C8.49992 5 5.42188 8.07804 5.42188 11.875V25.625C5.42188 29.422 8.49992 32.5 12.2969 32.5H26.0469C29.8438 32.5 32.9219 29.422 32.9219 25.625V11.875C32.9219 8.07804 29.8438 5 26.0469 5Z" stroke="white" stroke-width="2" stroke-linecap="round" stroke-linejoin="round"/>
<path d="M25.4219 17.7656C25.6147 19.066 25.3926 20.3941 24.7872 21.5609C24.1817 22.7278 23.2237 23.6741 22.0494 24.2651C20.8752 24.8561 19.5445 25.0619 18.2466 24.853C16.9487 24.6442 15.7497 24.0314 14.8201 23.1018C13.8905 22.1722 13.2777 20.9732 13.0689 19.6753C12.86 18.3774 13.0658 17.0467 13.6568 15.8724C14.2478 14.6982 15.1941 13.7402 16.3609 13.1347C17.5278 12.5293 18.8559 12.3072 20.1563 12.5C21.4827 12.6967 22.7107 13.3148 23.6589 14.263C24.6071 15.2112 25.2252 16.4392 25.4219 17.7656Z" stroke="white" stroke-width="2" stroke-linecap="round" stroke-linejoin="round"/>
<path d="M27.7656 10.1562H27.781" stroke="white" stroke-width="2" stroke-linecap="round" stroke-linejoin="round"/>
</svg>
